<svg width="800" height="600" viewBox="0 0 800 600" fill="none" xmlns="http://www.w3.org/2000/svg">
  <defs>
    <linearGradient id="g1" x1="0" y1="0" x2="1" y2="1">
      <stop offset="0%" stop-color="#3B82F6" stop-opacity="0.9"/>
      <stop offset="100%" stop-color="#8B5CF6" stop-opacity="0.9"/>
    </linearGradient>
    <linearGradient id="g2" x1="0" y1="0" x2="1" y2="0">
      <stop offset="0%" stop-color="#E0F2FE" stop-opacity="0.9"/>
      <stop offset="100%" stop-color="#EEF2FF" stop-opacity="0.9"/>
    </linearGradient>
    <filter id="blur" x="-20%" y="-20%" width="140%" height="140%">
      <feGaussianBlur stdDeviation="25" />
    </filter>
  </defs>
  <rect width="800" height="600" rx="32" fill="url(#g2)" />
  <circle cx="120" cy="120" r="90" fill="#BFDBFE" filter="url(#blur)"/>
  <circle cx="700" cy="160" r="110" fill="#DDD6FE" filter="url(#blur)"/>
  <rect x="120" y="140" width="560" height="320" rx="28" fill="#FFFFFF" stroke="#E5E7EB" stroke-width="2"/>
  <rect x="150" y="180" width="240" height="22" rx="11" fill="#E0F2FE"/>
  <rect x="150" y="220" width="400" height="14" rx="7" fill="#CBD5E1"/>
  <rect x="150" y="245" width="300" height="14" rx="7" fill="#E2E8F0"/>
  <rect x="150" y="270" width="360" height="14" rx="7" fill="#E2E8F0"/>
  <rect x="150" y="320" width="500" height="120" rx="14" fill="#F8FAFC" stroke="#E5E7EB" stroke-width="2"/>
  <rect x="170" y="340" width="200" height="16" rx="8" fill="#3B82F6" fill-opacity="0.15"/>
  <rect x="170" y="368" width="380" height="12" rx="6" fill="#CBD5E1"/>
  <rect x="170" y="388" width="340" height="12" rx="6" fill="#E2E8F0"/>
  <rect x="170" y="408" width="300" height="12" rx="6" fill="#E2E8F0"/>
  <rect x="150" y="470" width="180" height="36" rx="18" fill="url(#g1)"/>
  <rect x="360" y="470" width="140" height="36" rx="18" fill="#F1F5F9"/>
  <g transform="translate(540 215)">
    <rect width="140" height="110" rx="18" fill="#EEF2FF" stroke="#E0E7FF" stroke-width="2"/>
    <circle cx="36" cy="36" r="24" fill="url(#g1)"/>
    <path d="M32 36l6 6 12-14" stroke="#FFFFFF" stroke-width="4" stroke-linecap="round" stroke-linejoin="round"/>
    <rect x="24" y="78" width="92" height="10" rx="5" fill="#C7D2FE"/>
  </g>
  <g transform="translate(540 350)">
    <rect width="140" height="110" rx="18" fill="#ECFEFF" stroke="#CFFAFE" stroke-width="2"/>
    <rect x="20" y="26" width="100" height="14" rx="7" fill="#22D3EE" fill-opacity="0.2"/>
    <rect x="20" y="50" width="80" height="14" rx="7" fill="#BAE6FD"/>
    <rect x="20" y="74" width="60" height="14" rx="7" fill="#E0F2FE"/>
  </g>
  <path d="M190 150c18-34 64-56 112-24 64 42 94 22 122 10 48-20 90 24 74 68-14 38-48 42-90 42-64 0-118 26-182 26-62 0-94-66-36-122z" fill="url(#g1)" fill-opacity="0.08"/>
  <text x="170" y="520" fill="#475569" font-family="'Inter', 'Segoe UI', sans-serif" font-size="18" font-weight="600">Clinical pathways, verified programs, real-time status.</text>
</svg>
